<svg xmlns="http://www.w3.org/2000/svg" id="Red" viewBox="0 0 294.22 145.9"><defs><style>.cls-1{fill:#830029}</style></defs><path d="M282.85 115.38V21.33c0-9.56-9.53-19.12-19.07-19.12H21.4C11.86 2.2 2.33 11.76 2.33 21.33v103.3c0 9.54 9.53 19.07 19.07 19.07h235.24s6.25.09 7.62-.4c-3.56-1.19-11.38-4.93-19.16-18.67H24.16l-4.99 6.19c-.73.84-2 .97-2.88.27-.88-.7-1.03-1.97-.36-2.86l5.45-6.86V24.98l-5.45-6.86c-.67-.89-.52-2.16.36-2.86.88-.7 2.15-.58 2.88.27l4.68 5.81h237.6l4.68-5.81c.73-.84 2-.97 2.87-.27.88.7 1.03 1.97.36 2.86l-5.59 7.03v78.29l5.32 9.26c.57 1.02.24 2.31-.77 2.92-1 .61-2.3.3-2.94-.67l-1.37-2.26c-.08-.12-17.94-34.66-17.94-34.66.88-1.01 10.27-6.68 10.27-23.15s-9.61-25.58-19.68-25.58h-30.05c-2.51 0-4.44 1.45-4.44 3.89v83.6h18.48V51.3c0-2.44 1.92-3.89 4.44-3.89H231c3.43 0 5.18 2.09 5.18 7.17 0 6.32-7.11 12.96-11.23 17.08-2.66 2.66-.35 4.9 8.59 23.2 4.7 8.84 12.71 21.44 15.86 26.08 5.14 7.59 9.73 13.28 13.52 15.65 11.76 6.7 19.93-8.26 19.93-21.22ZM291.07 140.51a5.808 5.808 0 0 1-2.31 2.35c-1 .56-2.03.84-3.12.84s-2.12-.28-3.12-.84c-1-.56-1.77-1.34-2.32-2.35-.55-1.01-.83-2.06-.83-3.16s.28-2.17.84-3.19c.56-1.02 1.34-1.8 2.35-2.35 1-.55 2.03-.82 3.08-.82s2.08.27 3.08.82c1 .55 1.78 1.33 2.34 2.35.56 1.02.84 2.08.84 3.19s-.27 2.15-.83 3.16Zm-.92-5.82c-.47-.85-1.12-1.5-1.96-1.96-.83-.46-1.69-.69-2.57-.69s-1.73.23-2.57.69c-.83.46-1.49 1.11-1.96 1.96-.47.85-.71 1.74-.71 2.66s.23 1.79.69 2.63c.47.84 1.11 1.49 1.94 1.96.83.47 1.7.7 2.6.7s1.77-.23 2.6-.7c.83-.47 1.48-1.13 1.94-1.96.46-.84.69-1.72.69-2.63s-.23-1.81-.7-2.66Zm-2.49 4.3c.23.99.4 1.68.53 1.95h-.94c-.11-.2-.27-.81-.46-1.7-.21-.98-.59-1.35-1.41-1.38h-.86v3.08h-.9v-7c.46-.1 1.12-.16 1.73-.16.97 0 1.6.19 2.04.59.34.31.55.79.55 1.35 0 .93-.59 1.55-1.32 1.8v.03c.53.19.85.7 1.03 1.43Zm-.62-3.17c0-.92-.66-1.32-1.61-1.32-.44 0-.74.04-.89.09v2.59h.92c.97 0 1.58-.54 1.58-1.35Z" class="cls-1"/><path d="M108.92 116.79v-83.6c0-2.44-1.92-3.89-4.44-3.89H92.95c-3.04 0-3.84.47-4.73 2.26-.7 1.41-14.7 31.7-16.32 35.19l3.46 7.53a1.972 1.972 0 0 1-3.58 1.65L50.96 31.56c-.89-1.79-1.69-2.26-4.73-2.26H33.82c-2.51 0-4.44 1.45-4.44 3.89v83.6h19.07V76.56s17.29 32.93 18.62 35.22c1.33 2.28 2.42 2.31 3.76 0 1.52-2.3 19.74-35.26 19.74-35.26v40.27h18.33ZM195.42 116.79v-83.6c0-2.44-1.92-3.89-4.44-3.89h-11.53c-3.04 0-3.84.47-4.73 2.26-.7 1.41-14.7 31.7-16.32 35.19l3.46 7.53a1.972 1.972 0 0 1-3.58 1.65l-20.82-44.37c-.89-1.79-1.69-2.26-4.73-2.26h-12.41c-2.51 0-4.44 1.45-4.44 3.89v83.6h19.07V76.56s17.29 32.93 18.62 35.22c1.33 2.28 2.42 2.31 3.76 0 1.52-2.3 19.74-35.26 19.74-35.26v40.27h18.33Z" class="cls-1"/></svg>