<?xml version="1.0" encoding="UTF-8"?> <svg xmlns="http://www.w3.org/2000/svg" width="165" height="40" viewBox="0 0 165 40" fill="none"><g clip-path="url(#clip0_35_991)"><path d="M5.4832 30.5686C3.56597 30.6208 1.67065 30.1507 0 29.2086L1.176 26.4798C2.27189 27.216 3.56899 27.5944 4.8888 27.563C6.7352 27.563 7.9536 26.443 7.9536 24.9054C7.9536 23.3014 7.0656 22.531 5.0424 21.7966C1.2912 20.431 0.5144 18.471 0.5144 16.5166C0.5144 13.5118 3.0184 11.0606 6.8024 11.0606C8.61192 11.0021 10.4005 11.4617 11.9576 12.3854L10.8528 14.8726C9.93673 14.1967 8.82964 13.8292 7.6912 13.823C5.8512 13.823 4.8568 14.9814 4.8568 16.303C4.8568 17.8374 6.0696 18.607 7.8056 19.2702C11.6608 20.7374 12.5504 22.6302 12.5504 24.8302C12.5504 27.9086 9.8304 30.5662 5.4824 30.5662" fill="#82BF3F"></path><path d="M42.68 19.9371C38.4504 20.4275 35.8408 21.2971 35.8408 24.7235C35.8408 27.1731 37.3792 28.2235 40.0008 28.2235C40.9221 28.2384 41.8362 28.0585 42.6832 27.6955L42.68 19.9371ZM39.7048 30.6011C34.2896 30.6011 31.6016 28.5059 31.6016 24.8699C31.6016 19.9043 36.6496 18.4699 42.68 17.9099V16.8979C42.68 14.4491 41.0688 13.7875 38.7472 13.7875C37.0294 13.8203 35.3376 14.2136 33.7816 14.9419L32.7416 12.4883C34.8833 11.5316 37.2047 11.0439 39.5504 11.0579C43.6384 11.0579 46.8752 12.7035 46.8752 17.5643V29.2395C44.6147 30.221 42.1636 30.6857 39.7008 30.5995" fill="#82BF3F"></path><path d="M58.084 14.2042C57.4138 13.9988 56.717 13.8926 56.016 13.889C55.2775 13.8611 54.5439 14.0193 53.8824 14.349V30.2538H49.3912V12.4218C51.6506 11.4284 54.1067 10.9633 56.5728 11.0618H57.4152L58.9648 11.0986L58.084 14.2042Z" fill="#82BF3F"></path><path d="M64.6688 0.799805L60.2312 5.303V30.2542H64.684V20.6398H64.7576L71.38 30.2542H76.4272L68.768 20.0478L75.0032 11.955H70.6488L64.7576 19.9374H64.684V0.799805H64.6688Z" fill="#82BF3F"></path><path d="M20.9128 27.9413C20.2376 27.9646 19.5642 27.8584 18.9288 27.6285V13.9965C19.6681 13.7181 20.4544 13.5858 21.244 13.6069C24.888 13.6069 26.1744 16.2333 26.1744 20.7397C26.1744 25.3181 24.4456 27.9397 20.9128 27.9397M21.3544 11.0597C18.9861 10.9658 16.629 11.4317 14.4745 12.4197L14.4417 40.3741L18.9272 35.8885V30.1101C19.8954 30.3884 20.9002 30.5178 21.9072 30.4941C27.0976 30.4941 30.6232 26.7557 30.6232 20.6013C30.6232 14.5877 27.1272 11.0557 21.3536 11.0557" fill="#82BF3F"></path><path d="M103.592 13.7546C100.425 13.7546 99.8017 17.2178 99.8017 20.8122C99.8017 24.381 100.498 27.6922 103.592 27.6922C106.792 27.6922 107.385 24.377 107.385 20.8122C107.386 17.2178 106.792 13.7546 103.592 13.7546ZM103.592 30.601C98.0345 30.601 95.3521 26.4066 95.3521 20.8514C95.3521 15.2226 98.0345 11.0586 103.592 11.0586C109.185 11.0586 111.838 15.2186 111.838 20.8514C111.838 26.4066 109.147 30.601 103.592 30.601Z" fill="white"></path><path d="M121.263 30.6354C115.964 30.6354 113.57 28.4321 113.57 24.2722V11.9521H118.065V24.5121C118.065 26.2905 119.094 27.6905 121.408 27.6905C122.442 27.7415 123.471 27.5237 124.395 27.0586V11.9521H128.881V29.1314C126.49 30.2095 123.883 30.7236 121.262 30.6337" fill="white"></path><path d="M142.414 30.2547V16.8947C142.414 15.3579 141.674 13.7531 138.848 13.7531C137.795 13.7163 136.745 13.8924 135.761 14.2707V30.2547H131.267V12.4227C133.732 11.4362 136.374 10.9731 139.027 11.0627C144.954 11.0627 146.903 13.7891 146.903 16.8227V30.2547H142.414Z" fill="white"></path><path d="M87.1872 11.203C85.6576 11.2016 84.1473 11.545 82.7688 12.2078V0.799805L78.2832 5.303V30.2542H82.7688V14.5902C83.7323 14.0499 84.8256 13.7845 85.9296 13.823C88.6224 13.823 89.4336 15.3222 89.4336 17.003V30.2542H93.9264V16.8942C93.9264 13.9966 92.1888 11.203 87.1872 11.203Z" fill="white"></path><path d="M160.31 27.4494C159.591 27.7913 158.794 27.9352 158.001 27.8662C154.531 27.8662 153.101 25.0742 153.101 20.8086C153.101 16.819 154.426 13.643 158.324 13.643C158.994 13.6326 159.662 13.7133 160.31 13.883V27.4494ZM160.31 5.2998V11.5822C159.339 11.33 158.337 11.2107 157.334 11.2278C152.178 11.2278 148.646 14.9014 148.646 21.0558C148.646 27.0358 152.03 30.5974 157.883 30.5974C160.265 30.7093 162.638 30.2426 164.8 29.2374V0.799805L160.31 5.2998Z" fill="white"></path></g><defs><clipPath id="clip0_35_991"><rect width="164.8" height="40" fill="white"></rect></clipPath></defs></svg> 